<svg width="16" height="16" viewBox="0 0 16 16" fill="none" xmlns="http://www.w3.org/2000/svg">
<g clip-path="url(#clip0_1179_14860)">
<path d="M15.8094 8.14945C15.8094 7.49394 15.7562 7.01559 15.6411 6.51953H8.15576V9.47819H12.5495C12.4609 10.2135 11.9826 11.3208 10.9195 12.0648L10.9046 12.1639L13.2714 13.9973L13.4353 14.0137C14.9412 12.6229 15.8094 10.5766 15.8094 8.14945Z" fill="#4285F4" style="fill:#4285F4;fill:color(display-p3 0.2588 0.5216 0.9569);fill-opacity:1;"/>
<path d="M8.15583 15.9446C10.3084 15.9446 12.1155 15.2359 13.4354 14.0134L10.9196 12.0646C10.2464 12.534 9.34282 12.8618 8.15583 12.8618C6.04755 12.8618 4.25818 11.4711 3.62032 9.54883L3.52682 9.55677L1.06587 11.4613L1.03369 11.5508C2.34471 14.1551 5.03766 15.9446 8.15583 15.9446Z" fill="#34A853" style="fill:#34A853;fill:color(display-p3 0.2039 0.6588 0.3255);fill-opacity:1;"/>
<path d="M3.62011 9.54887C3.45181 9.05281 3.3544 8.52127 3.3544 7.97208C3.3544 7.42283 3.45181 6.89135 3.61126 6.39529L3.6068 6.28964L1.11501 4.35449L1.03349 4.39327C0.493151 5.474 0.183105 6.68762 0.183105 7.97208C0.183105 9.25654 0.493151 10.4701 1.03349 11.5508L3.62011 9.54887Z" fill="#FBBC05" style="fill:#FBBC05;fill:color(display-p3 0.9843 0.7373 0.0196);fill-opacity:1;"/>
<path d="M8.15583 3.08269C9.65287 3.08269 10.6627 3.72934 11.2385 4.26974L13.4885 2.07285C12.1067 0.788397 10.3084 0 8.15583 0C5.03766 0 2.34471 1.78937 1.03369 4.39371L3.61146 6.39573C4.25818 4.47347 6.04755 3.08269 8.15583 3.08269Z" fill="#EB4335" style="fill:#EB4335;fill:color(display-p3 0.9216 0.2627 0.2078);fill-opacity:1;"/>
</g>
<defs>
<clipPath id="clip0_1179_14860">
<rect width="16" height="16" fill="white" style="fill:white;fill-opacity:1;"/>
</clipPath>
</defs>
</svg>
